Coordinates
version=1
nRows=26
nColumns=18
inDegrees=yes

Units are S.I. units (second, meters, Newtons, ...)
If the header above contains a line with 'inDegrees', this indicates whether rotational values are in degrees (yes) or radians (no).

endheader
time	ground_thorax_rot_x	ground_thorax_rot_y	ground_thorax_rot_z	ground_thorax_tx	ground_thorax_ty	ground_thorax_tz	clav_prot	clav_elev	scapula_abduction	scapula_elevation	scapula_upward_rot	scapula_winging	plane_elv	shoulder_elv	axial_rot	elbow_flexion	pro_sup
      3.86000000	     -3.16866529	     -7.85324510	     -7.50213741	     -0.00626770	      0.00629732	     -0.00286693	    -42.45814708	      8.82816082	     -7.96136613	     -2.86524044	     68.66915262	    -12.33909907	     33.39078172	     91.35128509	    -15.23623535	      0.00000000	     34.32000000
      3.87000000	     -3.30869260	     -7.76257942	     -7.53309241	     -0.00626076	      0.00619939	     -0.00314430	    -42.49252354	      8.77792641	     -8.13622225	     -2.90767852	     68.50146978	    -12.35354559	     33.12307669	     91.13345434	    -15.29706323	      0.00000000	     34.32000000
      3.88000000	     -3.21782458	     -7.81882672	     -7.49694954	     -0.00623695	      0.00637210	     -0.00319202	    -42.50082057	      8.75529221	     -8.19826558	     -2.92597744	     68.43213546	    -12.35543040	     33.05054259	     91.08574088	    -15.29786620	      0.00000000	     34.32000000
      3.89000000	     -3.25113997	     -7.91595145	     -7.56257279	     -0.00606686	      0.00624350	     -0.00309974	    -42.52247122	      8.82820736	     -8.36875548	     -2.88319970	     68.29020945	    -12.39584683	     32.88807547	     90.97554890	    -15.31168059	      0.00000000	     34.32000000
      3.90000000	     -3.19468839	     -7.93304995	     -7.52644839	     -0.00605150	      0.00643427	     -0.00297246	    -42.53152809	      8.81741655	     -8.41954041	     -2.89281193	     68.24097514	    -12.40047780	     32.81388177	     90.93883935	    -15.31424101	      0.00000000	     34.32000000
      3.91000000	     -3.27325752	     -7.63377941	     -7.46931805	     -0.00626318	      0.00629162	     -0.00319562	    -42.57689631	      8.92744067	     -8.57502398	     -2.82405116	     68.18057868	    -12.46103381	     32.41933032	     90.78215483	    -15.39564419	      0.00000000	     34.32000000
      3.92000000	     -3.17174907	     -7.65610490	     -7.43596771	     -0.00633497	      0.00640681	     -0.00291184	    -42.57583802	      8.90133239	     -8.61460401	     -2.84358468	     68.11885820	    -12.45601957	     32.35434263	     90.73295603	    -15.39814899	      0.00000000	     34.32000000
      3.93000000	     -3.13829188	     -7.51022301	     -7.42318178	     -0.00642573	      0.00629986	     -0.00291485	    -42.56290491	      8.92623700	     -8.69290938	     -2.82945136	     68.00378776	    -12.46092176	     31.99923626	     90.58886342	    -15.42393096	      0.00000000	     34.32000000
      3.94000000	     -2.98363242	     -7.54388781	     -7.39958716	     -0.00643894	      0.00651130	     -0.00275585	    -42.54908823	      8.89663610	     -8.75133705	     -2.85187551	     67.89106071	    -12.44971758	     31.91076765	     90.50128488	    -15.42749496	      0.00000000	     34.32000000
      3.95000000	     -3.02449821	     -7.62177196	     -7.47054162	     -0.00636285	      0.00637098	     -0.00270150	    -42.52353996	      9.00886931	     -8.93104558	     -2.78127339	     67.65682974	    -12.47686082	     31.66077744	     90.31995166	    -15.45057967	      0.00000000	     34.32000000
      3.96000000	     -3.09405680	     -7.56237021	     -7.40547113	     -0.00649215	      0.00639235	     -0.00286384	    -42.47236767	      9.08895289	     -9.03557891	     -2.72922714	     67.45262902	    -12.47809503	     31.47181870	     90.11658493	    -15.52846080	      0.00000000	     34.32000000
      3.97000000	     -3.00521255	     -7.57397840	     -7.39554161	     -0.00646876	      0.00653224	     -0.00273794	    -42.46168094	      9.07513975	     -9.06669736	     -2.73957595	     67.38661348	    -12.47079827	     31.42057956	     90.05797121	    -15.53377341	      0.00000000	     34.32000000
      3.98000000	     -2.93735417	     -7.58034500	     -7.37333401	     -0.00639397	      0.00658927	     -0.00260746	    -42.45955606	      9.06369778	     -9.10485734	     -2.74870012	     67.33013614	    -12.46872009	     31.35174570	     90.00175395	    -15.53997406	      0.00000000	     34.32000000
      3.99000000	     -2.88881244	     -7.59028439	     -7.33935262	     -0.00637074	      0.00659564	     -0.00257589	    -42.46690573	      9.04918818	     -9.14704042	     -2.76024988	     67.28671785	    -12.47074605	     31.28164605	     89.95414844	    -15.54728262	      0.00000000	     34.32000000
      4.00000000	     -3.07002243	     -7.40824883	     -7.30884224	     -0.00646589	      0.00641727	     -0.00293169	    -42.53153302	      9.07153046	     -9.30554852	     -2.75176969	     67.22850531	    -12.51706155	     31.02077547	     89.63821870	    -15.70534691	      0.00000000	     34.32000000
      4.01000000	     -3.01880328	     -7.42657385	     -7.30512061	     -0.00645422	      0.00666287	     -0.00297406	    -42.53077773	      9.06596463	     -9.33600961	     -2.75659095	     67.18669122	    -12.51674651	     30.98468734	     89.59751459	    -15.71236667	      0.00000000	     34.32000000
      4.02000000	     -3.10029090	     -7.38767006	     -7.37244913	     -0.00634952	      0.00651270	     -0.00300562	    -42.54326216	      9.25000226	     -9.53197899	     -2.63743456	     67.03859091	    -12.58078017	     30.73915061	     89.33115858	    -15.82055027	      0.00000000	     34.32000000
      4.03000000	     -2.92724097	     -7.38089286	     -7.37578250	     -0.00628391	      0.00664107	     -0.00287377	    -42.51100965	      9.22674388	     -9.57144760	     -2.65378437	     66.91467941	    -12.56024589	     30.67512068	     89.21664174	    -15.83146019	      0.00000000	     34.32000000
      4.04000000	     -2.97845173	     -6.74509036	     -7.41321772	     -0.00632783	      0.00640323	     -0.00318131	    -42.85260023	      9.05342039	    -10.35309989	     -2.80547060	     66.56049489	    -12.72582222	     30.70102346	     88.84976486	    -16.74083709	      0.00000000	     34.32000000
      4.05000000	     -2.76068135	     -6.74604090	     -7.41851426	     -0.00626713	      0.00620887	     -0.00311583	    -42.80768965	      9.00561652	    -10.38359821	     -2.83783862	     66.41244561	    -12.69118142	     30.65071527	     88.72147210	    -16.74710636	      0.00000000	     34.32000000
      4.06000000	     -2.93093583	     -6.79487570	     -7.44144802	     -0.00622083	      0.00628401	     -0.00318543	    -42.74903400	      8.77488877	    -10.47404300	     -2.99555821	     66.08996389	    -12.60052581	     30.58085145	     88.47107331	    -16.75050570	      0.00000000	     34.32000000
      4.07000000	     -2.92990770	     -6.86387504	     -7.49954172	     -0.00617697	      0.00636787	     -0.00311806	    -42.74013409	      8.83546823	    -10.57578232	     -2.95646275	     65.96798647	    -12.61634940	     30.43032874	     88.37697432	    -16.74766569	      0.00000000	     34.32000000
      4.08000000	     -2.96325141	     -6.75584135	     -7.46073713	     -0.00618188	      0.00638558	     -0.00330615	    -42.70971345	      8.91481138	    -10.67243625	     -2.90355426	     65.81640000	    -12.62553720	     30.22308317	     88.21105525	    -16.75940174	      0.00000000	     34.32000000
      4.09000000	     -2.81090280	     -6.75216093	     -7.46721934	     -0.00600508	      0.00632118	     -0.00331389	    -42.67956711	      8.88568936	    -10.70207275	     -2.92290785	     65.70688920	    -12.60252350	     30.18175961	     88.11464616	    -16.76319309	      0.00000000	     34.32000000
      4.10000000	     -2.62942145	     -6.75446481	     -7.46806733	     -0.00584945	      0.00619055	     -0.00334307	    -42.64670944	      8.84127949	    -10.74779443	     -2.95285533	     65.56571284	    -12.57431422	     30.12827354	     87.99257622	    -16.76680959	      0.00000000	     34.32000000
      4.11000000	     -2.99258423	     -6.34387765	     -7.63424545	     -0.00577492	      0.00626535	     -0.00368457	    -42.83511925	      8.28698745	    -11.39351602	     -3.35139128	     64.91786341	    -12.53638332	     30.19325334	     87.70780934	    -16.61363415	      0.00000000	     34.32000000
